<svg xmlns="http://www.w3.org/2000/svg" viewBox="0 0 100 100">
  <!-- Background circle -->
  <circle cx="50" cy="50" r="48" fill="#4299E1" />
  
  <!-- Stylized database icon -->
  <path d="M30 35 Q50 25 70 35 Q50 45 30 35 Z" fill="white" />
  <path d="M30 45 Q50 35 70 45 Q50 55 30 45 Z" fill="white" />
  <path d="M30 55 Q50 45 70 55 Q50 65 30 55 Z" fill="white" />
  
  <!-- Chat bubble -->
  <path d="M75 60 Q85 60 85 70 L85 80 L80 75 L75 75 Q65 75 65 65 L65 60 Z" fill="white" />
  
  <!-- AI node connections -->
  <circle cx="40" cy="75" r="3" fill="white" />
  <circle cx="50" cy="80" r="3" fill="white" />
  <circle cx="60" cy="75" r="3" fill="white" />
  <line x1="40" y1="75" x2="50" y2="80" stroke="white" stroke-width="2" />
  <line x1="50" y1="80" x2="60" y2="75" stroke="white" stroke-width="2" />
</svg>